<?xml version="1.0" encoding="UTF-8"?>
<svg id="Layer_1" xmlns="http://www.w3.org/2000/svg" version="1.1" viewBox="0 0 468.92 474">
  <!-- Generator: Adobe Illustrator 29.2.1, SVG Export Plug-In . SVG Version: 2.1.0 Build 116)  -->
  <defs>
    <style>
      .st0 {
        fill: #0d1c27;
      }
    </style>
  </defs>
  <g>
    <path class="st0" d="M153.51,182.19c-21.74,0-42.19-8.45-57.61-23.8-1.89-1.88-4.41-2.89-6.99-2.89-1.07,0-2.15.17-3.19.53-2.72.93-5.57,1.4-8.46,1.4-14.47,0-26.24-11.77-26.24-26.24,0-10.12,5.94-19.45,15.13-23.77,3.4-1.6,5.6-4.99,5.69-8.74.47-21.4,9.18-41.46,24.54-56.51,15.38-15.06,35.67-23.36,57.13-23.36,15.22,0,30.08,4.24,42.98,12.25,1.59.99,3.41,1.49,5.23,1.49,1.5,0,2.99-.34,4.38-1.02,3.07-1.51,5.14-4.5,5.47-7.91,1.33-13.47,12.56-23.63,26.11-23.63s25.78,11.4,26.22,25.4c.12,3.73,2.32,7.08,5.71,8.66,1.34.62,2.77.93,4.19.93,2.18,0,4.34-.72,6.12-2.12,9.24-7.26,20.32-11.1,32.03-11.1,28.66,0,51.98,23.32,51.98,51.98,0,2.22-.16,4.55-.48,6.91-.5,3.73,1.16,7.43,4.29,9.53,1.67,1.12,3.59,1.68,5.53,1.68,1.69,0,3.39-.43,4.92-1.31,3.94-2.26,8.43-3.45,12.97-3.45,14.47,0,26.24,11.77,26.24,26.24s-11.77,26.24-26.24,26.24c-13.21,0-24.39-9.88-26.03-22.97-.47-3.74-3.01-6.89-6.57-8.13-1.06-.37-2.16-.55-3.25-.55-2.56,0-5.06.99-6.94,2.84-9.8,9.64-22.73,14.94-36.42,14.94-28.66,0-51.98-23.32-51.98-51.98,0-3.99.47-8.01,1.4-11.95.86-3.63-.4-7.44-3.25-9.84-1.82-1.54-4.09-2.34-6.39-2.34-1.3,0-2.62.26-3.86.78-3.22,1.37-6.65,2.06-10.19,2.06l-.65-.02c-.09,0-.17,0-.25,0-3.32,0-6.43,1.67-8.27,4.45-1.88,2.86-2.16,6.48-.73,9.59,4.93,10.71,7.42,22.15,7.42,34.01,0,45.04-36.65,81.69-81.69,81.69Z"/>
    <circle class="st0" cx="24.29" cy="157.44" r="16.83"/>
    <circle class="st0" cx="433.23" cy="146.54" r="16.83"/>
    <circle class="st0" cx="389.66" cy="60.4" r="16.83"/>
    <circle class="st0" cx="456.92" cy="209.48" r="12"/>
    <circle class="st0" cx="10.69" cy="289.34" r="10.69"/>
  </g>
  <g>
    <path class="st0" d="M192.62,474c-34.51,0-63.15-26.97-65.22-61.39-.22-3.66-2.44-6.89-5.77-8.41-1.31-.6-2.72-.9-4.11-.9-2.14,0-4.26.69-6.02,2.04-7.05,5.4-15.46,8.26-24.33,8.26-22.11,0-40.1-17.99-40.1-40.1s17.99-40.1,40.1-40.1c17.88,0,33.75,12.03,38.6,29.26.99,3.52,3.84,6.21,7.42,6.99.7.15,1.41.23,2.12.23,2.87,0,5.64-1.25,7.54-3.49,12.48-14.67,30.62-23.09,49.78-23.09,36.03,0,65.35,29.32,65.35,65.35s-29.32,65.35-65.35,65.35Z"/>
    <circle class="st0" cx="268.37" cy="452.71" r="17.33"/>
    <circle class="st0" cx="35.18" cy="337.36" r="13.86"/>
    <circle class="st0" cx="429.27" cy="365.08" r="13.86"/>
    <circle class="st0" cx="388.67" cy="395.78" r="13.86"/>
    <path class="st0" d="M316.34,456.09c-17.99,0-32.63-14.64-32.63-32.63s14.64-32.63,32.63-32.63c7.66,0,14.8,2.55,20.65,7.36,1.81,1.49,4.04,2.26,6.29,2.26,1.46,0,2.92-.32,4.28-.97,2.55-1.22,5.31-1.84,8.2-1.84,10.5,0,19.03,8.54,19.03,19.04s-8.54,19.03-19.03,19.03c-.66,0-1.33-.03-1.98-.1-.34-.04-.69-.05-1.03-.05-3.45,0-6.68,1.8-8.48,4.79-5.85,9.72-16.56,15.76-27.94,15.76Z"/>
  </g>
</svg>